<?xml version="1.0" encoding="UTF-8" standalone="no"?>
<svg
   viewBox="0 0 338.91299 339.67001"
   fill="none"
   version="1.1"
   id="svg2"
   width="338.91299"
   height="339.67001"
   sodipodi:docname="Warsaw Metro.svg"
   inkscape:export-filename="Warsaw Metro.svg"
   inkscape:export-xdpi="96"
   inkscape:export-ydpi="96"
   inkscape:version="1.4.2 (f4327f4, 2025-05-13)"
   xmlns:inkscape="http://www.inkscape.org/namespaces/inkscape"
   xmlns:sodipodi="http://sodipodi.sourceforge.net/DTD/sodipodi-0.dtd"
   xmlns="http://www.w3.org/2000/svg"
   xmlns:svg="http://www.w3.org/2000/svg">
  <sodipodi:namedview
     id="namedview1"
     pagecolor="#ffffff"
     bordercolor="#000000"
     borderopacity="0.25"
     inkscape:showpageshadow="2"
     inkscape:pageopacity="0.0"
     inkscape:pagecheckerboard="0"
     inkscape:deskcolor="#d1d1d1"
     inkscape:zoom="1.4142136"
     inkscape:cx="225.92061"
     inkscape:cy="148.84597"
     inkscape:window-width="1920"
     inkscape:window-height="1009"
     inkscape:window-x="-8"
     inkscape:window-y="-8"
     inkscape:window-maximized="1"
     inkscape:current-layer="svg2" />
  <defs
     id="defs2">
    <rect
       x="135.40521"
       y="290.21561"
       width="270.81042"
       height="36.223049"
       id="rect1" />
    <rect
       x="25.011152"
       y="221.21933"
       width="83.226768"
       height="41.828995"
       id="rect14" />
    <rect
       x="27.598513"
       y="123.33086"
       width="81.501862"
       height="39.672863"
       id="rect13" />
    <rect
       x="80.208176"
       y="34.066914"
       width="140.1487"
       height="38.379181"
       id="rect12" />
    <rect
       x="202.24535"
       y="218.63197"
       width="145.32343"
       height="50.453533"
       id="rect11" />
    <rect
       x="213.88847"
       y="139.71747"
       width="145.32343"
       height="45.278809"
       id="rect10" />
  </defs>
  <path
     d="M 1.000003,1 H 337.913 V 338.67 H 1.001003 Z"
     stroke-width="2"
     stroke="#000000"
     id="path1" />
  <path
     d="m 278.655,35.778 c 0,-8.376 6.966,-15.165 15.56,-15.165 4.126,0 8.084,1.597 11.001,4.441 2.918,2.844 4.558,6.702 4.558,10.724 0,8.376 -6.966,15.165 -15.56,15.165 -8.593,0 -15.559,-6.79 -15.559,-15.165 z"
     stroke-width="2"
     stroke="#000000"
     id="path2" />
  <rect
     style="fill:none;stroke:#000000"
     id="rect2"
     width="253.13011"
     height="65.977692"
     x="13.601301"
     y="13.335525" />
  <rect
     style="fill:none;stroke:#000000"
     id="rect3"
     width="312.20819"
     height="239.76208"
     x="13.170074"
     y="88.800209" />
  <rect
     style="fill:none;stroke:#000000"
     id="rect4"
     width="301.42752"
     height="85.814125"
     x="18.344795"
     y="95.268608" />
  <rect
     style="fill:none;stroke:#000000"
     id="rect4-9"
     width="301.42752"
     height="85.814125"
     x="18.309479"
     y="190.64594" />
  <path
     style="fill:#000000;stroke:#ffffff;stroke-width:0.431227"
     d="M 14.032527,209.11248 V 89.878275 H 169.27416 324.5158 V 209.11248 328.34668 H 169.27416 14.032527 Z M 320.63475,233.90802 V 190.35411 H 169.05855 17.482341 v 43.55391 43.5539 h 151.576209 151.5762 z m 0,-95.30112 V 95.052997 H 169.05855 17.482341 v 43.553903 43.55391 h 151.576209 151.5762 z"
     id="path8" />
</svg>
